Patient4_TMGait_0pt6_02_left_32_EMG.mot
version=1
nRows=13
nColumns=33
inDegrees=no
endheader
time	1LAddLong	2LGlutMax	3LGlutMed	4LIliopsoas	5LSemiMemb	6LBicFemLong	7LRecFem	8LVastMed	9LVastLat	10LGasMed	11LTibAnt	12lTibPost	13LPeroneusLong	14LSol	15LExtDigLong	16LFlexDigLong	17RAddLong	18RGlutMax	19RGlutMed	20RIliopsoas	21RSemiMemb	22RBicFemLong	23RRecFem	24RVastMed	25RVastLat	26RGasMed	27RTibAnt	28RTibPost	29RPeroneusLong	30RSol	31RExtDigLong	32RFlexDigLong
39.935	0.010376	-0.16327	-0.15701	0.01297	0.018311	0.018158	-0.11963	0.003204	-0.045624	-0.013428	0.005646	-0.014191	-0.029449	-0.10895	0.049438	-0.007172	0.038605	-0.31555	0.40726	-0.070648	0.32547	-0.18234	0.39688	0.6163	-0.039978	-0.011292	0.036011	-0.009308	-0.010834	-0.020294	0.015411	0.002747
39.936	0.015106	-0.13657	-0.15427	0.010986	0.019836	0.019531	-0.11627	0.011597	-0.027313	-0.023193	0.027313	-0.00824	-0.004883	-0.11414	-0.07309	0.000916	0.058441	-0.17441	0.47104	-0.065765	0.10361	-0.14053	0.34531	0.17136	0.032043	-0.016479	0.050049	-0.005035	0.18799	-0.024414	0.014801	-0.000916
39.937	0.009155	-0.11856	-0.16922	0.035248	0.014954	0.011597	-0.13046	0.001831	-0.02594	-0.019226	0.030212	0.00946	0.01236	-0.14648	-0.039673	0	0.13336	-0.053406	0.36865	-0.023956	0.12772	-0.159	0.18509	-0.27161	0.29526	-0.001831	0.006104	-0.002136	0.20706	-0.045166	0.013885	-0.001526
39.938	0.013275	-0.10178	-0.17883	0.025024	0.018768	0.025482	-0.13947	-0.001068	-0.020142	0.016479	0.024719	0.021973	0.019379	-0.12405	-0.03418	-0.01236	0.15457	-0.045013	0.43762	-0.018311	0.20584	-0.35339	0.16815	-0.74143	0.38284	0.00473	-0.062714	-0.004578	0.002441	-0.031738	0.013275	0.001068
39.939	0.009155	-0.097961	-0.17136	0.006409	0.014801	0.024109	-0.168	0.007935	-0.013123	0.045319	0.01709	0.023956	0.024719	0.093231	-0.020142	-0.016327	0.15243	0.041046	-0.31174	0.023651	-0.14053	-0.56717	0.34012	-0.89325	0.26871	0.00412	-0.06073	-0.005798	0.005646	0.022888	0.017853	-0.001373
39.94	0.010529	-0.080261	-0.17212	-0.00885	0.011292	0.016174	-0.18601	0.003815	-0.004883	0.077972	0.008392	-0.005188	0.022125	0.034027	0.011444	-0.001678	0.1178	0.14633	-0.89798	0.093536	-0.24506	-0.59586	0.27374	-0.91736	-0.003204	-0.004578	-0.02182	-0.003052	-0.17303	0.048523	0.014038	-0.010223
39.941	0.011597	-0.14694	-0.19379	0.012054	0.007324	0.031128	-0.18982	-0.003204	-0.019226	0.10086	0.006561	-0.046234	-0.003052	-0.16769	0.0354	-0.00412	0.11261	0.22919	-0.97885	0.065765	-0.55771	-0.41687	0.06546	-0.66406	-0.23804	0.005798	-0.032349	-0.001221	-0.31555	-0.031281	0.010376	-0.002136
39.942	0.011292	-0.24384	-0.25299	0.016479	0.007935	0.003357	-0.19363	0.001373	-0.014343	0.10452	0.017548	-0.007324	-0.010223	-0.14404	0.037079	-0.009003	0.10254	0.25864	-0.48508	0.011292	-0.41809	-0.25024	-0.30823	-0.65536	-0.40085	0.007172	0.010529	-0.003815	-0.36743	-0.041351	0.009308	-0.009918
39.943	0.007935	-0.28275	-0.24109	0.035858	0.00946	-0.018005	-0.17395	0.008545	-0.019073	0.081787	0.018005	-0.003815	0.011444	-0.25238	0.040894	-0.015717	0.042725	0.19745	1.6756	0.002441	0.34088	-0.15778	-0.7576	-0.57861	-0.21255	-0.00061	0.027771	0.006104	-0.6514	-0.022888	0.010834	-0.009918
39.944	0.006714	-0.3746	-0.20248	0.003204	0.006256	-0.018005	-0.17258	0.008545	-0.021362	0.004883	0.025024	-0.00824	-0.011749	-0.092468	0.078888	-0.020142	0.088196	0.045624	1.4819	0.037079	0.54306	-0.17487	-0.62988	-0.33173	-0.12833	-0.002899	-0.007629	-0.007782	0.44922	-0.062714	0.01358	0.000153
39.945	0.008392	-0.40115	-0.20508	-0.000153	-0.002899	-0.054932	-0.18387	-0.000305	-0.002441	-0.079193	0.02182	-0.007935	0.015564	0.012512	0.092468	-0.029144	0.21042	0.068817	1.0432	0.018768	0.32455	-0.14679	-0.33707	-0.30563	-0.0737	-0.00351	-0.012817	-0.007477	0.61539	-0.059662	0.008545	-0.00473
39.946	0.013428	-0.40009	-0.19089	0.003967	0.003204	-0.05661	-0.18616	0.002899	-0.002136	-0.068665	0.011749	-0.005798	0.040741	0.003204	0.062103	0.019531	0.26215	0.046997	0.85159	0.015564	0.16434	-0.327	0.046387	-0.64697	-0.15625	-0.003052	0.009308	-0.005646	0.45059	-0.028687	0.008545	-0.007477
39.947	0.014496	-0.34988	-0.19943	-0.014954	0.019073	-0.029144	-0.15305	0.001221	-0.003662	0.020599	-0.013123	0.003662	0.013428	0.072174	0.040588	0.015259	0.13947	0.065002	0.58014	0.068512	-0.28824	-0.13977	0.22964	-0.6459	-0.14923	-0.002747	0.011444	-0.004578	0.19302	0.028839	0.013123	-0.001526
